<svg width="126" height="105" viewBox="0 0 126 105" fill="none" xmlns="http://www.w3.org/2000/svg">
<path fill-rule="evenodd" clip-rule="evenodd" d="M48.931 23.0393C41.7368 15.7264 33.9799 8.62431 31.4023 9.0967C28.2901 9.66705 24.8932 24.3291 22.6567 36.0813C14.7219 43.3087 9.93188 52.6832 9.93188 62.9268C9.93188 85.7866 33.7862 104.318 63.212 104.318C92.6378 104.318 116.492 85.7866 116.492 62.9268C116.492 52.5631 111.589 43.089 103.487 35.828C101.25 24.1195 97.8795 9.66296 94.7896 9.0967C92.2168 8.62519 84.4841 15.6998 77.3014 22.9983C72.8135 22.0448 68.0893 21.5357 63.212 21.5357C58.2653 21.5357 53.4759 22.0594 48.931 23.0393Z" fill="white"/>
<g style="mix-blend-mode:multiply">
<path fill-rule="evenodd" clip-rule="evenodd" d="M32.5 80C52.6584 80 69 63.6584 69 43.5C69 35.2619 66.2708 27.6612 61.6671 21.5528C57.2674 21.6501 53.0012 22.1618 48.931 23.0394C41.7368 15.7264 33.9799 8.62434 31.4023 9.09673C28.2901 9.66708 24.8932 24.3291 22.6567 36.0814C14.7219 43.3088 9.93188 52.6833 9.93188 62.9269C9.93188 66.5754 10.5395 70.1137 11.6805 73.484C17.5855 77.5918 24.7615 80 32.5 80Z" fill="#D4D4D4"/>
</g>
<path d="M109.684 67.2463C116.01 64.9837 117.107 64.6051 123.881 63.3976" stroke="#333333" stroke-width="1.76133" stroke-linecap="round" stroke-linejoin="round"/>
<path d="M108.68 80.015C115.263 81.7523 118.006 82.9135 124.875 83.5455" stroke="#333333" stroke-width="1.76133" stroke-linecap="round" stroke-linejoin="round"/>
<path d="M109.48 73.8264C115.531 74.1825 117.541 73.4692 123.583 72.7121" stroke="#333333" stroke-width="1.76133" stroke-linecap="round" stroke-linejoin="round"/>
<path d="M16.3165 67.2463C9.98997 64.9837 8.89355 64.6051 2.11904 63.3976" stroke="#333333" stroke-width="1.76133" stroke-linecap="round" stroke-linejoin="round"/>
<path d="M17.32 80.015C10.7369 81.7523 7.9939 82.9135 1.1248 83.5455" stroke="#333333" stroke-width="1.76133" stroke-linecap="round" stroke-linejoin="round"/>
<path d="M16.5197 73.8264C10.469 74.1825 8.4593 73.4692 2.417 72.7121" stroke="#333333" stroke-width="1.76133" stroke-linecap="round" stroke-linejoin="round"/>
<circle cx="40.6903" cy="57.6903" r="10.6903" fill="white"/>
<circle cx="40.5" cy="57.5" r="8.5" fill="#333333"/>
<circle cx="36.5" cy="53.5" r="1.5" fill="white"/>
<circle cx="39.5" cy="57.5" r="2.5" fill="white"/>
<circle cx="87.6903" cy="57.6903" r="10.6903" fill="white"/>
<circle cx="87.5" cy="57.5" r="8.5" fill="#333333"/>
<circle cx="83.5" cy="53.5" r="1.5" fill="white"/>
<circle cx="86.5" cy="57.5" r="2.5" fill="white"/>
<path d="M63.6035 68.0151V74.1798C63.6035 76.1253 62.0263 77.7024 60.0808 77.7024H58.98C57.6425 77.7024 56.5582 76.6181 56.5582 75.2806V75.2806" stroke="#323232" stroke-width="1.32099" stroke-linecap="round" stroke-linejoin="round"/>
<path d="M63.6035 68.0151V74.1798C63.6035 76.1253 65.1806 77.7024 67.1261 77.7024H68.227C69.5645 77.7024 70.6488 76.6181 70.6488 75.2806V75.2806" stroke="#323232" stroke-width="1.32099" stroke-linecap="round" stroke-linejoin="round"/>
<path d="M68.0068 69.3361C68.0068 71.0384 66.0353 72.4185 63.6035 72.4185C61.1716 72.4185 59.2001 71.0384 59.2001 69.3361C59.2001 67.6338 61.1716 65.8135 63.6035 65.8135C66.0353 65.8135 68.0068 67.6338 68.0068 69.3361Z" fill="#323232"/>
<path d="M26.9868 32.5758C28.287 26.1415 29.5457 21.8142 32.1521 15.159C32.3509 14.6513 32.9626 14.4463 33.4254 14.7344C38.4748 17.8776 41.2523 20.2855 45.082 24.4084C45.5256 24.8859 45.3064 25.6621 44.6805 25.8438C38.0554 27.767 33.9388 29.0465 28.46 33.4423C27.8055 33.9674 26.8206 33.3983 26.9868 32.5758Z" fill="#AAAAAA"/>
<path d="M98.3188 31.9496C97.655 25.3536 97.0239 21.432 94.2841 14.682C94.08 14.1791 93.4689 13.9834 93.011 14.2747C88.4331 17.1866 85.8201 19.3483 81.5328 23.3567C81.0353 23.8219 81.234 24.6521 81.8866 24.8468C88.3907 26.7877 91.4689 28.1688 96.845 32.7092C97.4556 33.2249 98.3988 32.7448 98.3188 31.9496Z" fill="#AAAAAA"/>
<ellipse cx="36" cy="73" rx="6" ry="2" fill="#FFC7C3"/>
<ellipse cx="92" cy="73" rx="6" ry="2" fill="#FFC7C3"/>
<path d="M82.7974 22.4472C82.8932 22.3328 82.9846 22.2129 83.0712 22.0876C84.5503 19.9455 84.0469 17.0335 81.9469 15.5833C79.8468 14.1332 76.9453 14.6942 75.4662 16.8363C75.3226 17.0442 75.1976 17.2594 75.0911 17.4799C74.3604 15.8285 72.7304 14.682 70.846 14.6912C68.2969 14.7037 66.2477 16.8264 66.269 19.4325C66.2804 20.8218 66.8779 22.068 67.8196 22.927C67.633 22.9715 67.4469 23.0277 67.2623 23.0959C64.8177 23.9993 63.5586 26.6676 64.4501 29.0558C65.3415 31.444 68.0459 32.6477 70.4904 31.7444C70.6224 31.6956 70.7509 31.6417 70.8758 31.583C70.8651 31.7206 70.8602 31.8599 70.8614 32.0005C70.8827 34.6066 72.9664 36.7091 75.5156 36.6966C78.0647 36.6842 80.1139 34.5614 80.0925 31.9554C80.0906 31.7239 80.0725 31.4964 80.0392 31.2741C81.0953 31.6967 82.3148 31.7429 83.4757 31.3139C85.9203 30.4106 87.1794 27.7423 86.2879 25.3541C85.7056 23.7938 84.3494 22.7391 82.7974 22.4472Z" fill="#FFA787"/>
<g style="mix-blend-mode:multiply">
<circle cx="75.2914" cy="24.6056" r="2.83182" transform="rotate(34.6255 75.2914 24.6056)" fill="#FFA787" fill-opacity="0.5"/>
</g>
</svg>
