<svg width="112" height="102" viewBox="0 0 112 102" fill="none" xmlns="http://www.w3.org/2000/svg">
<ellipse cx="55" cy="50.9806" rx="49.8349" ry="50.9806" fill="white"/>
<path fill-rule="evenodd" clip-rule="evenodd" d="M103.32 63.5048C104.309 59.4978 104.835 55.302 104.835 50.9806C104.835 22.8248 82.5231 0 55 0C27.4769 0 5.16507 22.8248 5.16507 50.9806C5.16507 55.302 5.69066 59.4978 6.68002 63.5048C12.1368 41.9011 31.7012 25.9126 55 25.9126C78.2988 25.9126 97.8633 41.9011 103.32 63.5048Z" fill="#19BEDE"/>
<path d="M85.9392 41.9383C94.7509 38.7868 99.8388 37.3659 109.274 35.684" stroke="#323232" stroke-width="2.5" stroke-linecap="round" stroke-linejoin="round"/>
<path d="M85.0869 58.1438C94.2397 60.6245 99.2722 62.3765 108.002 66.3899" stroke="#323232" stroke-width="2.5" stroke-linecap="round" stroke-linejoin="round"/>
<path d="M89.1841 50.2693C97.6117 49.7733 101.727 50.5422 110.143 51.5968" stroke="#323232" stroke-width="2.5" stroke-linecap="round" stroke-linejoin="round"/>
<path d="M26.2346 41.9383C17.4229 38.7868 12.335 37.3659 2.89938 35.684" stroke="#323232" stroke-width="2.5" stroke-linecap="round" stroke-linejoin="round"/>
<path d="M27.0869 58.1438C17.9341 60.6245 12.9016 62.3765 4.17219 66.3899" stroke="#323232" stroke-width="2.5" stroke-linecap="round" stroke-linejoin="round"/>
<path d="M22.9897 50.2693C14.5621 49.7733 10.4471 50.5422 2.03125 51.5968" stroke="#323232" stroke-width="2.5" stroke-linecap="round" stroke-linejoin="round"/>
<path d="M55.1728 34.7961C55.1728 43.1624 49.1539 49.8621 41.8252 49.8621C34.4966 49.8621 28.4777 43.1624 28.4777 34.7961C28.4777 26.4298 34.4966 19.7301 41.8252 19.7301C49.1539 19.7301 55.1728 26.4298 55.1728 34.7961Z" fill="white" stroke="#323232" stroke-width="0.8"/>
<circle cx="47.5534" cy="34.2233" r="4.58252" fill="#323232"/>
<circle cx="49.2719" cy="33.6505" r="1.71845" fill="white"/>
<path d="M55.9728 34.7961C55.9728 43.1624 61.9917 49.8621 69.3204 49.8621C76.6491 49.8621 82.668 43.1624 82.668 34.7961C82.668 26.4298 76.6491 19.7301 69.3204 19.7301C61.9917 19.7301 55.9728 26.4298 55.9728 34.7961Z" fill="white" stroke="#323232" stroke-width="0.8"/>
<circle cx="4.58252" cy="4.58252" r="4.58252" transform="matrix(-1 0 0 1 68.1747 29.6408)" fill="#323232"/>
<circle cx="1.71845" cy="1.71845" r="1.71845" transform="matrix(-1 0 0 1 63.5922 31.9321)" fill="white"/>
<circle cx="55.5728" cy="45.8252" r="8.01942" fill="#D63A26"/>
<circle cx="54.4272" cy="43.5339" r="2.29126" fill="white"/>
<path d="M84.7701 62.6994C85.9512 62.7907 86.8739 63.7784 86.7874 64.9598C86.5534 68.1541 85.7857 71.2958 84.5095 74.2627C82.955 77.8765 80.6766 81.1601 77.8043 83.9261C74.932 86.692 71.5221 88.886 67.7692 90.3829C64.0164 91.8798 59.9941 92.6503 55.932 92.6503C51.87 92.6503 47.8477 91.8798 44.0949 90.3829C40.342 88.886 36.9321 86.692 34.0598 83.9261C31.1875 81.1601 28.909 77.8765 27.3546 74.2627C26.0767 71.2919 25.3086 68.1458 25.0758 64.9473C24.9901 63.771 25.9036 62.7858 27.079 62.6887C48.6478 60.9061 61.959 60.9368 84.7701 62.6994Z" fill="#D63A26"/>
<path fill-rule="evenodd" clip-rule="evenodd" d="M79.651 80.9155C79.6653 81.6091 79.4016 82.2786 78.928 82.7855C78.5643 83.1748 78.1896 83.5552 77.8043 83.9263C74.932 86.6922 71.5221 88.8863 67.7692 90.3832C64.0164 91.8801 59.9941 92.6505 55.932 92.6505C51.87 92.6505 47.8477 91.8801 44.0949 90.3832C40.342 88.8863 36.9321 86.6922 34.0598 83.9263C33.5543 83.4395 33.0672 82.9368 32.5993 82.419C32.1307 81.9005 31.8765 81.2206 31.9126 80.5227C32.4444 70.2246 41.672 64.0106 54.2808 71.0647C55.2941 71.6316 56.5444 71.6356 57.556 71.0655C70.9605 63.5106 79.4275 70.1214 79.651 80.9155Z" fill="#EA750D"/>
</svg>
