<svg width="120" height="129" viewBox="0 0 120 129" fill="none" xmlns="http://www.w3.org/2000/svg">
<path d="M55.4289 6.28376C56.0482 2.57123 59.241 -0.00298698 62.5601 0.534087C65.8792 1.07116 68.0678 4.51615 67.4485 8.22867L66.5696 13.4972L69.0713 8.90544C70.8506 5.63945 74.6192 4.48764 77.4887 6.33279C80.3582 8.17795 81.242 12.3214 79.4627 15.5874L70.8713 31.357C69.092 34.6229 65.3234 35.7748 62.4539 33.9296C61.5352 33.3388 60.82 32.5125 60.3306 31.5548C59.3918 31.9355 58.3657 32.0721 57.3271 31.904C56.4761 31.7663 55.6994 31.4374 55.0253 30.9619C54.1212 32.7485 52.5294 34.1039 50.5949 34.5009C47.253 35.1868 44.1535 32.7531 43.6721 29.0652L41.3475 11.2582C40.866 7.57029 43.1849 4.02462 46.5268 3.33875C49.8687 2.65289 52.9681 5.08655 53.4495 8.77449L54.1361 14.0338L55.4289 6.28376Z" fill="#FFF161"/>
<path d="M117 78.8346C117 109.139 90.3757 128.272 60 128.272C29.6243 128.272 3 109.139 3 78.8346C3 48.5306 29.6243 15.2721 60 15.2721C90.3757 15.2721 117 48.5306 117 78.8346Z" fill="#FFF161"/>
<path d="M72.0638 98.0299C75.174 99.8641 80.6126 98.5095 80.6126 98.5095C80.6126 98.5095 79.0845 93.5916 75.9743 91.7574C72.864 89.9232 67.4868 90.7688 67.4868 90.7688C67.4868 90.7688 68.9535 96.1957 72.0638 98.0299Z" fill="#A0BE56"/>
<path d="M62.6639 100.384C64.803 105.331 72.1422 108.71 72.1422 108.71C72.1422 108.71 74.3414 101.607 72.2023 96.6603C70.0632 91.7137 63.1148 87.8344 63.1148 87.8344C63.1148 87.8344 60.5248 95.4379 62.6639 100.384Z" fill="#BBD468"/>
<path d="M42.9329 87.2318C40.5427 85.7977 40.3154 82.4197 42.4921 80.6784L52.3597 72.7843C56.8307 69.2075 63.206 69.2877 67.5857 72.9758L76.8177 80.7502C78.8879 82.4935 78.6654 85.7466 76.3771 87.1918L66.2979 93.5576C62.4674 95.9769 57.6009 96.0326 53.716 93.7017L42.9329 87.2318Z" fill="#FFA046"/>
<ellipse cx="52.9137" cy="83.1695" rx="1.68288" ry="2.20513" fill="#CF7520"/>
<ellipse cx="66.0864" cy="83.1695" rx="1.68288" ry="2.20513" fill="#CF7520"/>
<circle cx="9" cy="9" r="9" transform="matrix(-1 0 0 1 43 61.2721)" fill="#3A3A3A"/>
<ellipse cx="2.7" cy="3.15" rx="2.7" ry="3.15" transform="matrix(-1 0 0 1 40.3 63.972)" fill="white"/>
<circle cx="1.35" cy="1.35" r="1.35" transform="matrix(-1 0 0 1 34.9 70.2721)" fill="white"/>
<path d="M27.9559 56.6845C32.7786 54.2103 35.3961 54.4612 39.9395 57.3125" stroke="#3A3A3A" stroke-width="2.5" stroke-linecap="round"/>
<circle cx="9" cy="9" r="9" transform="matrix(-1 0 0 1 95 61.2721)" fill="#3A3A3A"/>
<ellipse cx="2.7" cy="3.15" rx="2.7" ry="3.15" transform="matrix(-1 0 0 1 92.3 63.972)" fill="white"/>
<circle cx="1.35" cy="1.35" r="1.35" transform="matrix(-1 0 0 1 86.9 70.2721)" fill="white"/>
<path d="M93.0882 56.6845C88.2655 54.2103 85.648 54.4612 81.1047 57.3125" stroke="#3A3A3A" stroke-width="2.5" stroke-linecap="round"/>
<circle cx="23" cy="89.2721" r="12" fill="#FFAA97"/>
<circle cx="98" cy="89.2721" r="12" fill="#FFAA97"/>
<path d="M50.1355 68.878C50.1355 81.7002 39.256 92.1908 25.7143 92.1908C12.1726 92.1908 1.2931 81.7002 1.2931 68.878C1.2931 56.0558 12.1726 45.5652 25.7143 45.5652C39.256 45.5652 50.1355 56.0558 50.1355 68.878Z" stroke="#525252" stroke-width="2.58621"/>
<path d="M118.707 68.878C118.707 81.7002 107.827 92.1908 94.2857 92.1908C80.744 92.1908 69.8645 81.7002 69.8645 68.878C69.8645 56.0558 80.744 45.5652 94.2857 45.5652C107.827 45.5652 118.707 56.0558 118.707 68.878Z" stroke="#525252" stroke-width="2.58621"/>
<path d="M50.2857 67.0702C57.6035 65.824 61.8981 65.8464 69.7143 67.0702V71.6119C62.2503 70.4761 57.9944 70.4601 50.2857 71.6119V67.0702Z" fill="#525252"/>
</svg>
